<?xml version="1.0" encoding="utf-8"?>
<!-- Generator: Adobe Illustrator 19.2.1, SVG Export Plug-In . SVG Version: 6.00 Build 0)  -->
<svg version="1.1" id="Layer_1" xmlns="http://www.w3.org/2000/svg" xmlns:xlink="http://www.w3.org/1999/xlink" x="0px" y="0px"
	 viewBox="0 0 35.5 35" style="enable-background:new 0 0 35.5 35;" xml:space="preserve">
<style type="text/css">
	.st0{fill:none;stroke:#FFFFFF;stroke-width:3;stroke-miterlimit:10;}
	.st1{fill:#FFEEDF;}
	.st2{fill:#010101;}
</style>
<path class="st0" d="M11.1,31.3c1.8,1.4,3.4,2.2,6.5,2.2c3.2,0,5.8-0.9,8.5-3.8c0.1-0.1,1.2-1.4,1.2-1.4s2.2-3.7,2.8-5.8
	c0,0,0,0,0-0.1v0.1l0,0c1.1,0,2-0.5,2.8-1.3c0.7-0.8,1.1-1.8,1.1-2.9l0,0v-0.1c0-1.1-0.5-2.1-1.2-2.8c-0.7-0.7-1.5-1.1-2.3-1.2
	C29.2,6.9,24,1.5,17.8,1.5C11.4,1.5,6,7.2,5,14.8c-1,0.1-1.8,0.6-2.4,1.3c-0.7,0.8-1.1,1.8-1.1,2.9l0,0c0,0.1,0,0.1,0,0.2
	c0.1,2.2,1.8,4,4,4h0.1v-0.1c0.6,2,2,4.6,2.8,5.5C8.6,29.2,9.5,30.3,11.1,31.3z"/>
<path class="st1" d="M29.9,22.7L29.9,22.7L29.9,22.7C29.9,22.6,29.9,22.6,29.9,22.7z"/>
<path class="st1" d="M31.5,20.1c0.4-0.4,0.6-1,0.6-1.6v-0.1c0-0.7-0.3-1.3-0.7-1.7c-0.1-0.1-0.1-0.1-0.2-0.2
	c-0.2-0.2-0.4-0.3-0.7-0.4v0.1c0,0,0,0,0,0.1c0,0.4,0,0.9,0,1.3c0,1.1-0.1,2-0.3,3.1C30.8,20.6,31.2,20.4,31.5,20.1z"/>
<path class="st1" d="M4.6,16.9L4.6,16.9c0-0.1,0-0.1,0-0.2c-0.3,0.1-0.5,0.2-0.7,0.4c-0.1,0.1-0.2,0.2-0.3,0.3
	C3.2,17.9,3,18.5,3,19.1l0,0c0.1,1.2,0.9,2,1.9,2.2c-0.2-1.2-0.4-2.4-0.4-3.7C4.6,17.4,4.6,17.2,4.6,16.9z"/>
<path class="st1" d="M17.6,3.4c-6.2,0-11.3,6.4-11.3,14.3c0,4.4,1.6,8.3,4,10.9c0.5,0.5,1,1,1.6,1.4l0,0c0.2,0.2,0.5,0.3,0.7,0.5
	c-0.1-0.2-0.1-0.3-0.2-0.5c-0.1-0.4-0.2-0.8-0.3-1.2c0-0.2,0-0.4,0-0.6c0-0.9,0.3-1.7,0.7-2.5c0.2-0.3,0.4-0.6,0.6-0.9
	c0.6-0.7,1.4-1.3,2.2-1.6c0.7-0.3,1.5-0.4,2.2-0.4c1.1,0,2.1,0.3,3,0.8c0.7,0.4,1.3,0.9,1.7,1.5c0.1,0.1,0.1,0.2,0.2,0.3
	c0.5,0.8,0.9,1.7,0.9,2.8c0,0.4-0.1,0.9-0.2,1.3c0,0.2-0.1,0.4-0.2,0.5c0,0.1-0.1,0.2-0.1,0.3c0.1-0.1,0.2-0.2,0.3-0.2l0,0
	c0.5-0.4,1.1-0.9,1.5-1.4c2.4-2.6,4-6.5,4-10.9C28.9,9.8,23.8,3.4,17.6,3.4z"/>
<path class="st1" d="M20.5,25.4c-0.1-0.1-0.1-0.1-0.2-0.2c-0.7-0.6-1.7-0.9-2.6-0.9c-0.8,0-1.5,0.2-2.1,0.6
	c-0.3,0.2-0.6,0.4-0.9,0.7c-0.4,0.4-0.8,1-1,1.5c-0.1,0.3-0.2,0.7-0.2,1.1c0,0.7,0.2,1.3,0.5,1.7c0.7,1.2,2,1.9,3.6,1.9
	s2.9-0.8,3.6-2c0.3-0.5,0.5-1.2,0.5-1.7c0-0.4-0.1-0.9-0.2-1.3C21.4,26.3,21,25.8,20.5,25.4z"/>
<polygon class="st2" points="19.3,20 19.3,19.8 15.8,19.8 15.8,20 15.8,21.5 19.3,21.5 "/>
<path class="st2" d="M12.4,17.6c-0.4,0-0.7,0.2-0.9,0.5c-0.1,0.2-0.2,0.4-0.2,0.7c0,0.6,0.5,1.2,1.1,1.2s1.1-0.5,1.1-1.2
	c0-0.3-0.1-0.5-0.2-0.7C13.1,17.8,12.8,17.6,12.4,17.6z"/>
<path class="st2" d="M22.3,17.3c-0.4,0-0.8,0.3-1,0.7c-0.1,0.2-0.1,0.3-0.1,0.5c0,0.6,0.5,1.2,1.1,1.2s1.1-0.5,1.1-1.2
	c0-0.2,0-0.3-0.1-0.5C23.1,17.5,22.7,17.3,22.3,17.3z"/>
<rect id="rightBrow" x="9.6" y="12.8" transform="matrix(0.9974 -7.141016e-02 7.141016e-02 0.9974 -0.9415 0.9205)" class="st2" width="5.6" height="1.7"/>
<rect x="21.9" y="11.2" transform="matrix(7.649309e-02 -0.9971 0.9971 7.649309e-02 7.0891 35.6227)" class="st2" width="1.7" height="5.6"/>
<path class="st2" d="M17.2,28.2c0.2,0,0.3,0,0.5,0s0.4,0,0.6-0.1c1-0.3,1.7-1.2,1.7-2.2h-0.3h-4.3l0,0C15.5,27.2,16.2,28,17.2,28.2z
	"/>
<path class="st2" d="M11.1,31.3c1.8,1.4,3.4,2.2,6.5,2.2c3.2,0,5.8-0.9,8.5-3.8c0.1-0.1,1.2-1.4,1.2-1.4s2.2-3.7,2.8-5.8
	c0,0,0,0,0-0.1v0.1l0,0c1.1,0,2-0.5,2.8-1.3c0.7-0.8,1.1-1.8,1.1-2.9l0,0v-0.1c0-1.1-0.5-2.1-1.2-2.8c-0.7-0.7-1.5-1.1-2.3-1.2
	C29.2,6.9,24,1.5,17.8,1.5C11.4,1.5,6,7.2,5,14.8c-1,0.1-1.8,0.6-2.4,1.3c-0.7,0.8-1.1,1.8-1.1,2.9l0,0c0,0.1,0,0.1,0,0.2
	c0.1,2.2,1.8,4,4,4h0.1v-0.1c0.6,2,2,4.6,2.8,5.5C8.5,29.2,9.5,30.3,11.1,31.3z M17.6,3.4c6.2,0,11.3,6.4,11.3,14.3
	c0,4.4-1.6,8.3-4,10.9c-0.5,0.5-1,1-1.5,1.4l0,0c-0.1,0.1-0.2,0.2-0.3,0.2c0-0.1,0.1-0.2,0.1-0.3c0.1-0.2,0.1-0.3,0.2-0.5
	c0.1-0.4,0.2-0.8,0.2-1.3c0-1.1-0.3-1.9-0.9-2.8c-0.1-0.1-0.1-0.2-0.2-0.3c-0.5-0.6-1-1.1-1.7-1.5c-0.9-0.5-1.9-0.8-3-0.8
	c-0.8,0-1.6,0.2-2.2,0.4c-0.9,0.4-1.7,0.9-2.2,1.6c-0.2,0.3-0.4,0.6-0.6,0.9c-0.4,0.8-0.7,1.7-0.7,2.5c0,0.2,0,0.4,0,0.6
	c0.1,0.4,0.1,0.8,0.3,1.2c0.1,0.2,0.1,0.3,0.2,0.5c-0.2-0.2-0.5-0.3-0.7-0.5l0,0c-0.6-0.4-1.1-0.9-1.6-1.4c-2.4-2.6-4-6.5-4-10.9
	C6.3,9.8,11.4,3.4,17.6,3.4z M13.6,28.1c0-0.4,0.1-0.7,0.2-1.1c0.2-0.6,0.5-1.1,1-1.5c0.3-0.3,0.6-0.5,0.9-0.7
	c0.6-0.4,1.4-0.6,2.1-0.6c1,0,1.9,0.4,2.6,0.9c0.1,0.1,0.1,0.1,0.2,0.2c0.5,0.4,0.8,0.9,1,1.5c0.1,0.4,0.2,0.8,0.2,1.3
	c0,0.7-0.2,1.3-0.5,1.7c-0.7,1.2-2,2-3.6,2s-2.9-0.8-3.6-1.9C13.8,29.4,13.6,28.7,13.6,28.1z M30.6,16.3L30.6,16.3
	c0.2,0,0.5,0.1,0.7,0.3c0.1,0.1,0.1,0.1,0.2,0.2c0.4,0.5,0.7,1.1,0.7,1.7v0.1c0,0.6-0.2,1.2-0.6,1.6c-0.3,0.3-0.7,0.6-1.1,0.7
	c0.2-1,0.3-2,0.3-3.1C30.6,17.2,30.6,16.8,30.6,16.3L30.6,16.3z M3,19.1L3,19.1c0-0.7,0.2-1.3,0.6-1.7c0.1-0.1,0.2-0.2,0.3-0.3
	c0.2-0.2,0.5-0.3,0.7-0.4v0.1l0,0c0,0.2,0,0.5,0,0.7c0,1.3,0.1,2.5,0.4,3.7C3.9,21.1,3,20.3,3,19.1z"/>
</svg>
